<?xml version="1.0" encoding="UTF-8"?>
<svg xmlns="http://www.w3.org/2000/svg" viewBox="997.95 366.57 320 320" width="320" height="320">
  <style>
    .mark { fill: #000; }
    .ring { fill: none; stroke: #000; stroke-width: 12; }
    @media (prefers-color-scheme: dark) {
      .mark { fill: #fff; }
      .ring { stroke: #fff; }
    }
  </style>
  <g class="mark">
    <path d="M1198.16,480.3l-39.88-69.08,19.12-11.04,28.38,49.16c3.11,5.39,3.13,12.01.07,17.42l-7.68,13.54Z"/>
    <path d="M1157.92,434.66l26.36,45.66-15.81.04c-5.96-.44-11.03-3-13.94-7.93l-15.43-26.21c-3.53-6.12-10.06-9.89-17.12-9.89l-57.94.45,7.65-13.13c3.3-5.63,9.35-8.95,15.87-8.92l35.04-.47c14.57,0,28.04,7.78,35.32,20.4Z"/>
    <path d="M1218.13,538.26l39.88-69.08,19.12,11.04-28.38,49.16c-3.11,5.39-8.84,8.72-15.06,8.77l-15.56.12Z"/>
    <path d="M1237.53,480.59l-26.36,45.66-7.94-13.67c-2.6-5.38-2.91-11.05-.1-16.04l14.98-26.47c3.53-6.12,3.53-13.65,0-19.77l-29.36-49.95,15.19.06c6.52.04,12.42,3.62,15.66,9.28l17.93,30.11c7.28,12.62,7.28,28.17,0,40.79Z"/>
    <path d="M1177.91,584.53h79.77v22.07h-56.76c-6.22,0-11.97-3.29-15.12-8.65l-7.88-13.42Z"/>
    <path d="M1237.56,572.51h-52.72s7.87-13.71,7.87-13.71c3.35-4.94,8.11-8.05,13.84-8.11l30.41-.26c7.06,0,13.59-3.77,17.13-9.88l28.58-50.41,7.54,13.19c3.22,5.67,3.08,12.57-.21,18.2l-17.11,30.58c-7.29,12.62-20.76,20.39-35.33,20.39Z"/>
    <path d="M1117.74,572.84l39.88,69.08-19.12,11.04-28.38-49.16c-3.11-5.39-3.13-12.01-.07-17.42l7.68-13.54Z"/>
    <path d="M1157.97,618.48l-26.36-45.66,15.81-.04c5.96.44,11.03,3,13.94,7.93l15.43,26.21c3.53,6.12,10.06,9.89,17.12,9.89l57.94-.45-7.65,13.13c-3.3,5.63-9.35,8.95-15.87,8.92l-35.04.47c-14.57,0-28.04-7.78-35.32-20.4Z"/>
    <path d="M1097.77,514.88l-39.88,69.08-19.12-11.04,28.38-49.16c3.11-5.39,8.84-8.72,15.06-8.77l15.56-.12Z"/>
    <path d="M1078.36,572.55l26.36-45.66,7.94,13.67c2.6,5.38,2.91,11.05.1,16.04l-14.98,26.47c-3.53,6.12-3.53,13.65,0,19.77l29.36,49.95-15.19-.06c-6.52-.04-12.42-3.62-15.66-9.28l-17.93-30.11c-7.28-12.62-7.28-28.17,0-40.79Z"/>
    <path d="M1137.98,468.61h-79.77v-22.07h56.76c6.22,0,11.97,3.29,15.12,8.65l7.88,13.42Z"/>
    <path d="M1078.33,480.64h52.72s-7.87,13.71-7.87,13.71c-3.35,4.94-8.11,8.05-13.84,8.11l-30.41.26c-7.06,0-13.59,3.77-17.13,9.88l-28.58,50.41-7.54-13.19c-3.22-5.67-3.08-12.57.21-18.2l17.11-30.58c7.29-12.62,20.76-20.39,35.33-20.39Z"/>
  </g>
  <g class="ring">
    <circle cx="1162.67" cy="396.76" r="13.72"/>
    <circle cx="1272.73" cy="465.76" r="13.72"/>
    <circle cx="1268" cy="595.57" r="13.72"/>
    <circle cx="1153.22" cy="656.38" r="13.72"/>
    <circle cx="1043.17" cy="587.38" r="13.72"/>
    <circle cx="1047.89" cy="457.57" r="13.72"/>
  </g>
</svg>
